<?xml version="1.0" encoding="utf-8"?>
<!-- Generator: Adobe Illustrator 24.2.0, SVG Export Plug-In . SVG Version: 6.00 Build 0)  -->
<svg version="1.1" id="Layer_1" xmlns="http://www.w3.org/2000/svg" xmlns:xlink="http://www.w3.org/1999/xlink" x="0px" y="0px"
	 viewBox="0 0 34 71" style="enable-background:new 0 0 34 71;" xml:space="preserve">
<style type="text/css">
	.st0{fill:#EE3124;}
	.st1{fill:#FFFFFF;}
</style>
<rect y="0.1" class="st0" width="34" height="70.8"/>
<path class="st1" d="M26.2,57.7h-7.4c-1.6,0-3.4,0.3-3.4,2.8c0,0.9,0.3,1.5,0.6,1.9c0.7,0.8,1.9,1,2.7,1h7.4v1.2H10.7v-1.2h5.5
	c-0.6-0.1-1.9-1.2-1.9-3.1c0-1.5,0.6-2.6,1.3-3.1c0.8-0.6,1.8-0.6,3.1-0.6h7.4v1.1H26.2z"/>
<path class="st1" d="M15.4,49.9c-0.1,3.3,4,3.4,4.3,3.4v-6.5C19.7,46.8,15.4,46.7,15.4,49.9z M20.7,53.4c0,0,0.2,0,0.4,0
	c1.1-0.1,4-0.4,4-4.1c0-2.3-1.6-3.4-1.6-3.4l1.5,0.2c0,0,1.2,1.2,1.2,3.3c0,4.9-4.1,5.3-5.8,5.3c-1.9,0-6.1-0.5-6.1-4.7
	c0-4.2,4.6-4.4,5.8-4.4c0.3,0,0.6,0,0.6,0V53.4z"/>
<rect x="20.1" y="25.1" class="st1" width="1.2" height="4.9"/>
<path class="st1" d="M18.9,7.6c-0.6,0-1.9,0.1-2.6,0.8c-0.5,0.4-0.8,1.2-0.8,2.2c0,2.1,2.2,3.3,5,3.3c2.6,0,4.9-0.9,4.9-3.3
	c0-1.9-1.6-2.9-3-2.9L18.9,7.6L18.9,7.6z M26.4,10.7c0,3.1-2.7,4.4-6.1,4.4c-3.2,0-5.9-1.8-5.9-4.5c0-1.9,1.2-2.8,1.7-3h-5.4V6.4
	c0,0,10.2,0,11.3,0C23.6,6.4,26.4,7.4,26.4,10.7z"/>
<path class="st1" d="M14.6,16.8c0,0,10,3.1,10.1,3.2c0.2,0.1,0.2,0.1,0,0.2c-0.1,0-10.1,3.2-10.1,3.2v1.2l10.8-3.5
	c0.6-0.3,0.9-0.6,0.9-1.1s-0.2-0.8-0.9-1.1l-10.8-3.4V16.8z"/>
<rect x="14.6" y="42.3" class="st1" width="11.6" height="1.2"/>
<rect x="11.5" y="42.3" class="st1" width="1.3" height="1.2"/>
<path class="st1" d="M29.2,35.6c0,2.2-0.9,3.4-2.1,3.4c-1,0-1.8-0.8-1.9-1.5c0,0,0-1,0-1.9c0-2.5,0.9-3.2,1.9-3.2
	C28.5,32.5,29.2,34.2,29.2,35.6z M18.3,38.5c-1.7,0-3-0.8-3-2.8c0-2.2,1.5-2.9,3-2.9c2,0,2.9,1.2,2.9,3
	C21.3,37.3,20.1,38.5,18.3,38.5z M24,35.6c0,1.1,0.3,3.4-0.9,3.4c-1,0-0.9-1.6-0.9-3.2c0-2.5-1.5-4.1-3.9-4.1c-1.3,0-2.3,0.4-3,1.2
	v-1.4h-1v4.3v0.1c0,1.8,1,3.8,4,3.8c2,0,3-1.3,3.1-1.8c0,0.5,0.3,2.3,1.8,2.2c0.9,0,1.3-0.5,1.5-1.5c0.2,0.6,1.1,1.5,2.4,1.5
	c1.6,0,3-1.5,3-4.5c0-2.5-1.1-4.3-3.2-4.4C25,31.3,24,32.6,24,35.6z"/>
</svg>
